<?xml version="1.0" encoding="utf-8"?>
<!-- Generator: Adobe Illustrator 24.0.2, SVG Export Plug-In . SVG Version: 6.00 Build 0)  -->
<svg version="1.1" id="Layer_1" xmlns="http://www.w3.org/2000/svg" xmlns:xlink="http://www.w3.org/1999/xlink" x="0px" y="0px"
	 viewBox="0 0 119.1 23" style="enable-background:new 0 0 119.1 23;" xml:space="preserve">
<style type="text/css">
	.st0{fill:#2a46ff;}
</style>
<g transform="translate(0 -2)">
	<path class="st0" d="M0.2,9h2.6C2.9,9,3,9.1,3,9.2v15.6C3,24.9,2.9,25,2.8,25H0.2C0.1,25,0,24.9,0,24.8V9.2C0,9.1,0.1,9,0.2,9z"/>
	<path class="st0" d="M5.2,6h2.6C7.9,6,8,6.1,8,6.2v15.6C8,21.9,7.9,22,7.8,22H5.2C5.1,22,5,21.9,5,21.8V6.2C5,6.1,5.1,6,5.2,6z"/>
	<path class="st0" d="M10.2,2h2.6C12.9,2,13,2.1,13,2.2v15.6c0,0.1-0.1,0.2-0.2,0.2h-2.6c-0.1,0-0.2-0.1-0.2-0.2V2.2
		C10,2.1,10.1,2,10.2,2z"/>
	<path class="st0" d="M30.2,13.3l-1.8,1.8V18h-2.1V6.8h2.1v5.7l5.5-5.7h2.3l-4.7,5l5,6.2h-2.4L30.2,13.3z M46,18.2
		c-1.1,0-2.1-0.2-3.1-0.7c-0.9-0.5-1.6-1.2-2.2-2.1c-0.5-0.9-0.8-1.9-0.8-3c0-1,0.3-2.1,0.8-3c0.5-0.9,1.3-1.6,2.2-2.1
		c1-0.5,2-0.8,3.1-0.7c1.1,0,2.1,0.2,3.1,0.7c0.9,0.5,1.6,1.2,2.2,2.1c0.5,0.9,0.8,1.9,0.8,3c0,1-0.3,2.1-0.8,3
		c-0.5,0.9-1.3,1.6-2.2,2.1C48.1,17.9,47.1,18.2,46,18.2z M46,16.3c0.7,0,1.4-0.2,2-0.5c0.6-0.3,1.1-0.8,1.4-1.4
		c0.3-0.6,0.5-1.3,0.5-2c0-0.7-0.2-1.4-0.5-2C49.1,9.8,48.6,9.3,48,9c-0.6-0.3-1.3-0.5-2-0.5c-0.7,0-1.4,0.2-2,0.5
		c-0.6,0.3-1.1,0.8-1.4,1.4c-0.3,0.6-0.5,1.3-0.5,2c0,0.7,0.2,1.4,0.5,2c0.3,0.6,0.8,1.1,1.4,1.4C44.6,16.2,45.3,16.3,46,16.3z
		 M57.4,6.8h2.1v9.4h5.9V18h-7.9V6.8z M70.2,6.8h2.1v9.4h5.9V18h-7.9V6.8z M91.4,16.3V18H83V6.8h8.2v1.7h-6.1v2.9h5.4v1.7h-5.4v3.1
		H91.4z M100.8,13.3L99,15.1V18h-2.1V6.8H99v5.7l5.5-5.7h2.3l-4.7,5l5,6.2h-2.4L100.8,13.3z M113.3,8.6h-3.7V6.8h9.5v1.8h-3.7V18
		h-2.1V8.6z"/>
</g>
</svg>
