<svg xmlns="http://www.w3.org/2000/svg" width="119.136" height="32.402" viewBox="0 0 119.136 32.402"><defs><style>.a{fill:#2a46ff;}.b{fill:#a8a8a8;}</style></defs><g transform="translate(0 -2)"><rect class="a" width="3" height="16" rx="0.19" transform="translate(0 9)"/><rect class="a" width="3" height="16" rx="0.19" transform="translate(5 6)"/><rect class="a" width="3" height="16" rx="0.19" transform="translate(10 2)"/><path class="b" d="M.981-7.139H3a3.8,3.8,0,0,1,2.056.425,1.5,1.5,0,0,1,.635,1.343,1.552,1.552,0,0,1-.354,1.047A1.7,1.7,0,0,1,4.3-3.789v.049q1.626.278,1.626,1.709A1.835,1.835,0,0,1,5.281-.537,2.754,2.754,0,0,1,3.472,0H.981Zm.83,3.057H3.179a2.226,2.226,0,0,0,1.265-.276,1.065,1.065,0,0,0,.386-.93.941.941,0,0,0-.43-.867,2.685,2.685,0,0,0-1.367-.266H1.812Zm0,.7V-.708H3.3a2.121,2.121,0,0,0,1.3-.334A1.235,1.235,0,0,0,5.039-2.09a1.109,1.109,0,0,0-.447-.977,2.388,2.388,0,0,0-1.36-.312ZM6.489-5.352h.869L8.53-2.3A11.608,11.608,0,0,1,9.009-.791h.039q.063-.249.266-.852T10.64-5.352h.869L9.209.742a3.04,3.04,0,0,1-.8,1.282A1.7,1.7,0,0,1,7.29,2.4a3.261,3.261,0,0,1-.732-.083V1.67a2.825,2.825,0,0,0,.6.059A1.238,1.238,0,0,0,8.35.791l.3-.762ZM17.295,0h-.83V-6.4H14.2v-.737h5.352V-6.4H17.295Zm5.654-5.449a3.172,3.172,0,0,1,.64.059l-.112.752a2.761,2.761,0,0,0-.586-.073,1.426,1.426,0,0,0-1.111.527,1.923,1.923,0,0,0-.461,1.313V0h-.811V-5.352h.669l.093.991h.039a2.352,2.352,0,0,1,.718-.806A1.616,1.616,0,0,1,22.949-5.449ZM26.851.1a2.459,2.459,0,0,1-1.873-.723,2.8,2.8,0,0,1-.686-2.007,3.1,3.1,0,0,1,.637-2.056,2.117,2.117,0,0,1,1.711-.762,2.018,2.018,0,0,1,1.592.662,2.536,2.536,0,0,1,.586,1.746v.513H25.132A2.121,2.121,0,0,0,25.608-1.1,1.647,1.647,0,0,0,26.88-.61a4.31,4.31,0,0,0,1.709-.361v.723a4.289,4.289,0,0,1-.813.266A4.569,4.569,0,0,1,26.851.1Zm-.22-4.868a1.324,1.324,0,0,0-1.028.42,1.936,1.936,0,0,0-.452,1.162h2.8a1.782,1.782,0,0,0-.342-1.174A1.2,1.2,0,0,0,26.631-4.771ZM33.862,0V-3.462a1.4,1.4,0,0,0-.3-.977,1.213,1.213,0,0,0-.933-.322,1.538,1.538,0,0,0-1.23.454,2.293,2.293,0,0,0-.391,1.5V0H30.2V-5.352h.659l.132.732h.039a1.655,1.655,0,0,1,.7-.613,2.269,2.269,0,0,1,1-.217,2.033,2.033,0,0,1,1.455.466,1.985,1.985,0,0,1,.488,1.492V0ZM39.98-.718h-.044A1.9,1.9,0,0,1,38.257.1,1.987,1.987,0,0,1,36.624-.62a3.159,3.159,0,0,1-.583-2.041,3.213,3.213,0,0,1,.586-2.056,1.972,1.972,0,0,1,1.631-.732,1.946,1.946,0,0,1,1.67.791h.063l-.034-.386-.02-.376V-7.6h.811V0h-.659Zm-1.621.137a1.476,1.476,0,0,0,1.2-.452,2.282,2.282,0,0,0,.374-1.458v-.171a2.685,2.685,0,0,0-.378-1.624,1.437,1.437,0,0,0-1.208-.486,1.241,1.241,0,0,0-1.091.554,2.756,2.756,0,0,0-.378,1.565A2.642,2.642,0,0,0,37.256-1.1,1.273,1.273,0,0,0,38.359-.581ZM49.287,0V-3.481a1.445,1.445,0,0,0-.273-.959,1.058,1.058,0,0,0-.85-.32,1.372,1.372,0,0,0-1.118.435,2.065,2.065,0,0,0-.361,1.338V0h-.811V-3.481a1.445,1.445,0,0,0-.273-.959,1.064,1.064,0,0,0-.854-.32A1.324,1.324,0,0,0,43.63-4.3a2.471,2.471,0,0,0-.354,1.5V0h-.811V-5.352h.659l.132.732H43.3a1.593,1.593,0,0,1,.647-.61,1.977,1.977,0,0,1,.935-.22,1.59,1.59,0,0,1,1.641.908h.039a1.706,1.706,0,0,1,.693-.664,2.151,2.151,0,0,1,1.035-.244,1.812,1.812,0,0,1,1.36.466A2.086,2.086,0,0,1,50.1-3.491V0Zm5.771,0L54.9-.762h-.039a2.252,2.252,0,0,1-.8.681A2.433,2.433,0,0,1,53.066.1a1.787,1.787,0,0,1-1.248-.41,1.5,1.5,0,0,1-.452-1.167q0-1.621,2.593-1.7l.908-.029V-3.54a1.357,1.357,0,0,0-.271-.93,1.115,1.115,0,0,0-.867-.3,3.531,3.531,0,0,0-1.514.41l-.249-.62a3.809,3.809,0,0,1,.867-.337,3.754,3.754,0,0,1,.945-.122,2.039,2.039,0,0,1,1.418.425,1.773,1.773,0,0,1,.461,1.362V0ZM53.228-.571a1.645,1.645,0,0,0,1.189-.415,1.535,1.535,0,0,0,.432-1.162v-.483l-.811.034a2.948,2.948,0,0,0-1.394.3.905.905,0,0,0-.427.828.835.835,0,0,0,.266.669A1.1,1.1,0,0,0,53.228-.571Zm5.83,0A2.648,2.648,0,0,0,59.473-.6a2.687,2.687,0,0,0,.317-.066v.62a1.482,1.482,0,0,1-.388.1A2.915,2.915,0,0,1,58.94.1q-1.553,0-1.553-1.636V-4.722h-.767v-.391l.767-.337.342-1.143H58.2v1.24h1.553v.63H58.2v3.149a1.083,1.083,0,0,0,.229.742A.8.8,0,0,0,59.058-.571ZM63,.1a2.284,2.284,0,0,1-1.8-.715,2.942,2.942,0,0,1-.637-2.024,3.033,3.033,0,0,1,.647-2.075,2.329,2.329,0,0,1,1.843-.732,3.658,3.658,0,0,1,.771.083,2.541,2.541,0,0,1,.605.2l-.249.688a3.811,3.811,0,0,0-.586-.178,2.616,2.616,0,0,0-.562-.071q-1.631,0-1.631,2.08a2.477,2.477,0,0,0,.4,1.514,1.385,1.385,0,0,0,1.179.527A3.605,3.605,0,0,0,64.351-.9v.718A2.924,2.924,0,0,1,63,.1ZM69.282,0V-3.462a1.4,1.4,0,0,0-.3-.977,1.213,1.213,0,0,0-.933-.322,1.528,1.528,0,0,0-1.233.459,2.325,2.325,0,0,0-.388,1.5V0H65.62V-7.6h.811v2.3a5.011,5.011,0,0,1-.039.688h.049a1.653,1.653,0,0,1,.681-.608,2.214,2.214,0,0,1,1.008-.222,2.065,2.065,0,0,1,1.472.466,1.964,1.964,0,0,1,.491,1.482V0Z" transform="translate(25 32)"/><path class="a" d="M-41.84-4.688l-1.776,1.824V0H-45.7V-11.2h2.08v5.744L-38.08-11.2h2.336l-4.7,5.008L-35.456,0h-2.432ZM-26,.16a6.387,6.387,0,0,1-3.088-.744,5.51,5.51,0,0,1-2.16-2.064A5.671,5.671,0,0,1-32.032-5.6a5.671,5.671,0,0,1,.784-2.952,5.51,5.51,0,0,1,2.16-2.064A6.387,6.387,0,0,1-26-11.36a6.387,6.387,0,0,1,3.088.744,5.527,5.527,0,0,1,2.16,2.056,5.659,5.659,0,0,1,.784,2.96,5.659,5.659,0,0,1-.784,2.96,5.527,5.527,0,0,1-2.16,2.056A6.387,6.387,0,0,1-26,.16Zm0-1.824a4.04,4.04,0,0,0,2.016-.5,3.645,3.645,0,0,0,1.408-1.408A4.034,4.034,0,0,0-22.064-5.6a4.034,4.034,0,0,0-.512-2.024,3.645,3.645,0,0,0-1.408-1.408A4.04,4.04,0,0,0-26-9.536a4.04,4.04,0,0,0-2.016.5,3.645,3.645,0,0,0-1.408,1.408A4.034,4.034,0,0,0-29.936-5.6a4.034,4.034,0,0,0,.512,2.024,3.645,3.645,0,0,0,1.408,1.408A4.04,4.04,0,0,0-26-1.664ZM-14.56-11.2h2.08v9.44h5.856V0H-14.56Zm12.784,0H.3v9.44H6.16V0H-1.776ZM19.408-1.744V0h-8.4V-11.2h8.176v1.744h-6.1v2.912H18.5v1.712H13.088v3.088Zm9.376-2.944L27.008-2.864V0h-2.08V-11.2h2.08v5.744L32.544-11.2H34.88l-4.7,5.008L35.168,0H32.736ZM41.344-9.44H37.632V-11.2h9.5v1.76H43.424V0h-2.08Z" transform="translate(72 18)"/></g></svg>