<svg xmlns="http://www.w3.org/2000/svg" width="92.832" height="11.52" viewBox="0 0 92.832 11.52"><defs><style>.a{fill:#2a46ff;}</style></defs><path class="a" d="M-41.84-4.688l-1.776,1.824V0H-45.7V-11.2h2.08v5.744L-38.08-11.2h2.336l-4.7,5.008L-35.456,0h-2.432ZM-26,.16a6.387,6.387,0,0,1-3.088-.744,5.51,5.51,0,0,1-2.16-2.064A5.671,5.671,0,0,1-32.032-5.6a5.671,5.671,0,0,1,.784-2.952,5.51,5.51,0,0,1,2.16-2.064A6.387,6.387,0,0,1-26-11.36a6.387,6.387,0,0,1,3.088.744,5.527,5.527,0,0,1,2.16,2.056,5.659,5.659,0,0,1,.784,2.96,5.659,5.659,0,0,1-.784,2.96,5.527,5.527,0,0,1-2.16,2.056A6.387,6.387,0,0,1-26,.16Zm0-1.824a4.04,4.04,0,0,0,2.016-.5,3.645,3.645,0,0,0,1.408-1.408A4.034,4.034,0,0,0-22.064-5.6a4.034,4.034,0,0,0-.512-2.024,3.645,3.645,0,0,0-1.408-1.408A4.04,4.04,0,0,0-26-9.536a4.04,4.04,0,0,0-2.016.5,3.645,3.645,0,0,0-1.408,1.408A4.034,4.034,0,0,0-29.936-5.6a4.034,4.034,0,0,0,.512,2.024,3.645,3.645,0,0,0,1.408,1.408A4.04,4.04,0,0,0-26-1.664ZM-14.56-11.2h2.08v9.44h5.856V0H-14.56Zm12.784,0H.3v9.44H6.16V0H-1.776ZM19.408-1.744V0h-8.4V-11.2h8.176v1.744h-6.1v2.912H18.5v1.712H13.088v3.088Zm9.376-2.944L27.008-2.864V0h-2.08V-11.2h2.08v5.744L32.544-11.2H34.88l-4.7,5.008L35.168,0H32.736ZM41.344-9.44H37.632V-11.2h9.5v1.76H43.424V0h-2.08Z" transform="translate(45.695 11.359)"/></svg>