<svg xmlns="http://www.w3.org/2000/svg" width="47.869" height="38.37" viewBox="0 0 47.869 38.37"><defs><style>.a{fill:#3b86ff;}</style></defs><g transform="translate(1.215 -13)"><g transform="translate(16 11)"><rect class="a" width="3" height="16" rx="0.19" transform="translate(0 9)"/><rect class="a" width="3" height="16" rx="0.19" transform="translate(5 6)"/><rect class="a" width="3" height="16" rx="0.19" transform="translate(10 2)"/></g><path class="a" d="M-43.708-7.92l-.916.941V-5.5H-45.7v-5.775h1.073v2.962l2.855-2.962h1.2L-42.99-8.7-40.416-5.5H-41.67Zm8.168,2.5A3.293,3.293,0,0,1-37.132-5.8a2.841,2.841,0,0,1-1.114-1.064,2.924,2.924,0,0,1-.4-1.522,2.924,2.924,0,0,1,.4-1.522,2.841,2.841,0,0,1,1.114-1.064,3.293,3.293,0,0,1,1.592-.384,3.293,3.293,0,0,1,1.592.384,2.85,2.85,0,0,1,1.114,1.06,2.918,2.918,0,0,1,.4,1.526,2.918,2.918,0,0,1-.4,1.526A2.85,2.85,0,0,1-33.948-5.8,3.293,3.293,0,0,1-35.54-5.42Zm0-.941a2.083,2.083,0,0,0,1.04-.26,1.88,1.88,0,0,0,.726-.726A2.08,2.08,0,0,0-33.51-8.39a2.08,2.08,0,0,0-.264-1.044,1.88,1.88,0,0,0-.726-.726,2.083,2.083,0,0,0-1.04-.26,2.083,2.083,0,0,0-1.04.26,1.88,1.88,0,0,0-.726.726,2.08,2.08,0,0,0-.264,1.044,2.08,2.08,0,0,0,.264,1.044,1.88,1.88,0,0,0,.726.726A2.083,2.083,0,0,0-35.54-6.36Zm5.9-4.917h1.073V-6.41h3.02V-5.5h-4.092Zm6.592,0h1.073V-6.41h3.02V-5.5h-4.092ZM-12.125-6.4v.9h-4.331v-5.775h4.216v.9h-3.143v1.5H-12.6v.883h-2.789V-6.4ZM-7.291-7.92l-.916.941V-5.5H-9.279v-5.775h1.073v2.962l2.855-2.962h1.2L-6.573-8.7-4-5.5H-5.253Zm6.477-2.45H-2.728v-.908h4.9v.908H.258V-5.5H-.814Z" transform="translate(44.482 56.79)"/></g></svg>