<svg xmlns="http://www.w3.org/2000/svg" width="16.002" height="14" viewBox="0 0 16.002 14"><defs><style>.a{fill:#a8a8a8;}</style></defs><path class="a" d="M8-13c-4.419,0-8,2.909-8,6.5A5.745,5.745,0,0,0,1.653-2.553,7.93,7.93,0,0,1,.2-.266.75.75,0,0,0,.75,1,7.582,7.582,0,0,0,5.1-.447,9.652,9.652,0,0,0,8,0c4.419,0,8-2.909,8-6.5S12.419-13,8-13ZM8-1.5a8.121,8.121,0,0,1-2.45-.378L4.841-2.1l-.609.431a6.721,6.721,0,0,1-1.8.906,7.838,7.838,0,0,0,.622-1.256L3.388-2.9l-.644-.681A4.3,4.3,0,0,1,1.5-6.5c0-2.756,2.916-5,6.5-5s6.5,2.244,6.5,5S11.584-1.5,8-1.5Z" transform="translate(0.002 13)"/></svg>