<svg xmlns="http://www.w3.org/2000/svg" width="16" height="14.004" viewBox="0 0 16 14.004"><defs><style>.a{fill:#a8a8a8;}</style></defs><path class="a" d="M14.325-11.991A4.707,4.707,0,0,0,8-11.522a4.7,4.7,0,0,0-6.325-.469,4.728,4.728,0,0,0-.331,6.913L6.825.506A1.638,1.638,0,0,0,8,1,1.63,1.63,0,0,0,9.175.509l5.481-5.584A4.732,4.732,0,0,0,14.325-11.991Zm-.738,5.859L8.106-.547a.128.128,0,0,1-.213,0L2.413-6.131a3.223,3.223,0,0,1,.228-4.709,3.168,3.168,0,0,1,4.266.328L8-9.4l1.094-1.116a3.166,3.166,0,0,1,4.266-.331A3.237,3.237,0,0,1,13.587-6.131Z" transform="translate(0 13)"/></svg>