<svg xmlns="http://www.w3.org/2000/svg" width="15.5" height="15.5" viewBox="0 0 15.5 15.5"><defs><style>.a{fill:#fff;}</style></defs><path class="a" d="M0-13.75A7.749,7.749,0,0,0-7.75-6,7.749,7.749,0,0,0,0,1.75,7.749,7.749,0,0,0,7.75-6,7.749,7.749,0,0,0,0-13.75Zm5.6,5H3.5a10.414,10.414,0,0,0-.975-2.959A6.265,6.265,0,0,1,5.6-8.75ZM0-12.25c.581,0,1.519,1.288,1.975,3.5h-3.95C-1.519-10.962-.581-12.25,0-12.25ZM-6.25-6a6.328,6.328,0,0,1,.125-1.25H-3.7c-.031.409-.053.822-.053,1.25s.022.841.053,1.25H-6.125A6.328,6.328,0,0,1-6.25-6ZM-5.6-3.25h2.1A10.414,10.414,0,0,0-2.528-.291,6.265,6.265,0,0,1-5.6-3.25Zm2.1-5.5H-5.6a6.265,6.265,0,0,1,3.075-2.959A10.414,10.414,0,0,0-3.5-8.75ZM0,.25c-.581,0-1.519-1.288-1.975-3.5H1.978C1.519-1.038.581.25,0,.25Zm2.191-5H-2.191c-.034-.4-.059-.812-.059-1.25s.025-.85.059-1.25H2.194c.034.4.059.813.059,1.25S2.225-5.15,2.191-4.75ZM2.528-.291A10.514,10.514,0,0,0,3.5-3.25H5.6A6.265,6.265,0,0,1,2.528-.291ZM3.7-4.75c.031-.409.053-.822.053-1.25S3.728-6.841,3.7-7.25H6.125A6.328,6.328,0,0,1,6.25-6a6.328,6.328,0,0,1-.125,1.25Z" transform="translate(7.75 13.75)"/></svg>