<svg xmlns="http://www.w3.org/2000/svg" width="15.5" height="15.5" viewBox="0 0 15.5 15.5"><defs><style>.a{fill:#a8a8a8;}</style></defs><path class="a" d="M8-13.75A7.751,7.751,0,0,0,.25-6,7.75,7.75,0,0,0,8,1.75,7.75,7.75,0,0,0,15.75-6,7.751,7.751,0,0,0,8-13.75Zm0,14A6.246,6.246,0,0,1,1.75-6,6.248,6.248,0,0,1,8-12.25,6.248,6.248,0,0,1,14.25-6,6.246,6.246,0,0,1,8,.25Zm3.351-7.975A3.1,3.1,0,0,0,8.181-10.5,3.513,3.513,0,0,0,5.038-8.807a.376.376,0,0,0,.083.511l.869.659A.375.375,0,0,0,6.511-7.7c.47-.594.8-.937,1.529-.937.556,0,1.243.358,1.243.9,0,.407-.336.617-.885.924-.64.359-1.487.805-1.487,1.922v.271a.375.375,0,0,0,.375.375H8.713a.375.375,0,0,0,.375-.375v-.2C9.088-5.6,11.351-5.63,11.351-7.725ZM9.313-2.5A1.314,1.314,0,0,0,8-3.812,1.314,1.314,0,0,0,6.688-2.5,1.314,1.314,0,0,0,8-1.187,1.314,1.314,0,0,0,9.313-2.5Z" transform="translate(-0.25 13.75)"/></svg>