<svg xmlns="http://www.w3.org/2000/svg" width="16.719" height="16.002" viewBox="0 0 16.719 16.002"><defs><style>.a{fill:#a8a8a8;}</style></defs><path class="a" d="M16.5-8.641l-4.566-.666L9.9-13.444a1,1,0,0,0-1.794,0L6.063-9.306,1.5-8.641A1,1,0,0,0,.944-6.934l3.3,3.219L3.466.831a1,1,0,0,0,1.45,1.053L9-.263l4.084,2.147A1,1,0,0,0,14.534.831l-.781-4.547,3.3-3.219A1,1,0,0,0,16.5-8.641Zm-4.359,4.4L12.884.084,9-1.956,5.116.084l.741-4.325L2.712-7.3l4.344-.631L9-11.872l1.944,3.938,4.344.631Z" transform="translate(-0.641 14)"/></svg>