<svg xmlns="http://www.w3.org/2000/svg" width="32" height="32" viewBox="0 0 32 32"><defs><style>.a{fill:#2a46ff;}.b{fill:#fff;}</style></defs><g transform="translate(-162 -127.672)"><path class="a" d="M7,0H25a6.923,6.923,0,0,1,7,7V25a6.923,6.923,0,0,1-7,7H7a6.923,6.923,0,0,1-7-7V7A6.923,6.923,0,0,1,7,0Z" transform="translate(162 127.672)"/><path class="b" d="M7.257,3.1a2,2,0,0,1,3.486,0l5.58,9.921A2,2,0,0,1,14.58,16H3.42a2,2,0,0,1-1.743-2.981Z" transform="translate(188 134.672) rotate(90)"/></g></svg>