<svg xmlns="http://www.w3.org/2000/svg" width="32" height="32" viewBox="0 0 32 32"><defs><style>.a,.b{fill:#fff;}.a{opacity:0;}</style></defs><g transform="translate(-162 -127.672)"><path class="a" d="M7,0H25a6.923,6.923,0,0,1,7,7V25a6.923,6.923,0,0,1-7,7H7a6.923,6.923,0,0,1-7-7V7A6.923,6.923,0,0,1,7,0Z" transform="translate(162 127.672)"/><path class="b" d="M1,0A1,1,0,0,1,2,1V13a1,1,0,0,1-2,0V1A1,1,0,0,1,1,0Z" transform="translate(172 137.672)"/><path class="b" d="M1,0A1,1,0,0,1,2,1V13a1,1,0,0,1-2,0V1A1,1,0,0,1,1,0Z" transform="translate(177 135.672)"/><path class="b" d="M1,0A1,1,0,0,1,2,1V13a1,1,0,0,1-2,0V1A1,1,0,0,1,1,0Z" transform="translate(182 133.672)"/></g></svg>