<svg xmlns="http://www.w3.org/2000/svg" width="12" height="18" viewBox="0 0 12 18"><defs><style>.a{fill:#2a46ff;}</style></defs><g transform="translate(-172 -133.672)"><path class="a" d="M1,0A1,1,0,0,1,2,1V13a1,1,0,0,1-2,0V1A1,1,0,0,1,1,0Z" transform="translate(172 137.672)"/><path class="a" d="M1,0A1,1,0,0,1,2,1V13a1,1,0,0,1-2,0V1A1,1,0,0,1,1,0Z" transform="translate(177 135.672)"/><path class="a" d="M1,0A1,1,0,0,1,2,1V13a1,1,0,0,1-2,0V1A1,1,0,0,1,1,0Z" transform="translate(182 133.672)"/></g></svg>