<svg xmlns="http://www.w3.org/2000/svg" width="182.614" height="22.664" viewBox="0 0 182.614 22.664"><defs><style>.a{fill:#2a46ff;}</style></defs><g transform="translate(-78.941 14.605)"><path class="a" d="M-38.107,1.765-41.6,5.354v5.634h-4.1V-11.045h4.092V.255l10.9-11.3h4.6l-9.246,9.851,9.812,12.181h-4.784ZM-6.947,11.3a12.564,12.564,0,0,1-6.075-1.464,10.839,10.839,0,0,1-4.249-4.06A11.156,11.156,0,0,1-18.813-.029a11.156,11.156,0,0,1,1.542-5.807A10.839,10.839,0,0,1-13.022-9.9a12.564,12.564,0,0,1,6.075-1.464A12.564,12.564,0,0,1-.873-9.9,10.872,10.872,0,0,1,3.376-5.851,11.132,11.132,0,0,1,4.919-.029,11.132,11.132,0,0,1,3.376,5.794,10.872,10.872,0,0,1-.873,9.839,12.564,12.564,0,0,1-6.947,11.3Zm0-3.588a7.947,7.947,0,0,0,3.966-.984,7.17,7.17,0,0,0,2.77-2.77A7.935,7.935,0,0,0,.8-.029,7.935,7.935,0,0,0-.212-4.01a7.17,7.17,0,0,0-2.77-2.77,7.947,7.947,0,0,0-3.966-.991,7.947,7.947,0,0,0-3.966.984,7.17,7.17,0,0,0-2.77,2.77A7.935,7.935,0,0,0-14.69-.029a7.935,7.935,0,0,0,1.007,3.982,7.17,7.17,0,0,0,2.77,2.77A7.947,7.947,0,0,0-6.947,7.714Zm22.5-18.759h4.092V7.525h11.52v3.462H15.557Zm25.148,0h4.084V7.525H56.316v3.462H40.7Zm41.672,18.6v3.431H65.853V-11.045H81.936v3.431h-12v5.728H80.591V1.482H69.945V7.557Zm18.444-5.791L97.327,5.354v5.634H93.236V-11.045h4.092V.255l10.89-11.3h4.6l-9.246,9.851,9.812,12.181H108.6Zm24.707-9.348h-7.3v-3.462h18.688v3.462H129.62v18.57h-4.092Z" transform="translate(124.641 -3.245)"/></g></svg>