<svg xmlns="http://www.w3.org/2000/svg" xmlns:xlink="http://www.w3.org/1999/xlink" width="35.728" height="32.59" viewBox="0 0 35.728 32.59"><defs><style>.a{fill:#2a46ff;opacity:0;}.b,.c{fill:#fff;}.b{opacity:0.41;}.d{filter:url(#a);}</style><filter id="a" x="5" y="0" width="30.728" height="30.728" filterUnits="userSpaceOnUse"><feOffset dy="3" input="SourceAlpha"/><feGaussianBlur stdDeviation="3" result="b"/><feFlood flood-opacity="0.161"/><feComposite operator="in" in2="b"/><feComposite in="SourceGraphic"/></filter></defs><g transform="translate(-162 -127.081)"><path class="a" d="M7,0H25a6.923,6.923,0,0,1,7,7V25a6.923,6.923,0,0,1-7,7H7a6.923,6.923,0,0,1-7-7V7A6.923,6.923,0,0,1,7,0Z" transform="translate(162 127.672)"/><path class="b" d="M2,0A2,2,0,0,1,4,2V12a2,2,0,0,1-4,0V2A2,2,0,0,1,2,0Z" transform="matrix(0.755, -0.656, 0.656, 0.755, 166.899, 141.838)"/><g class="d" transform="matrix(1, 0, 0, 1, 162, 127.08)"><path class="c" d="M2,0A2,2,0,0,1,4,2V12a2,2,0,0,1-4,0V2A2,2,0,0,1,2,0Z" transform="translate(16.83 18.73) rotate(-135)"/></g></g></svg>