<svg xmlns="http://www.w3.org/2000/svg" xmlns:xlink="http://www.w3.org/1999/xlink" width="28" height="32" viewBox="0 0 28 32"><defs><style>.a,.c{fill:#2a46ff;}.a{opacity:0.41;}.b{fill:#fff;opacity:0;}.d{filter:url(#a);}</style><filter id="a" x="0" y="0" width="28" height="32" filterUnits="userSpaceOnUse"><feOffset dy="3" input="SourceAlpha"/><feGaussianBlur stdDeviation="3" result="b"/><feFlood flood-opacity="0.161"/><feComposite operator="in" in2="b"/><feComposite in="SourceGraphic"/></filter></defs><g transform="translate(-166 -128.672)"><path class="a" d="M2,0H8a2,2,0,0,1,2,2V12a2,2,0,0,1-2,2H2a2,2,0,0,1-2-2V2A2,2,0,0,1,2,0Z" transform="translate(171 138.672)"/><path class="b" d="M1,0A1,1,0,0,1,2,1V13a1,1,0,0,1-2,0V1A1,1,0,0,1,1,0Z" transform="translate(177 136.672)"/><g class="d" transform="matrix(1, 0, 0, 1, 166, 128.67)"><path class="c" d="M2,0H8a2,2,0,0,1,2,2V12a2,2,0,0,1-2,2H2a2,2,0,0,1-2-2V2A2,2,0,0,1,2,0Z" transform="translate(9 6)"/></g></g></svg>