<svg xmlns="http://www.w3.org/2000/svg" xmlns:xlink="http://www.w3.org/1999/xlink" width="32" height="33" viewBox="0 0 32 33"><defs><style>.a,.b,.c{fill:#fff;}.a{opacity:0;}.b{opacity:0.41;}.d{filter:url(#a);}</style><filter id="a" x="4" y="1" width="28" height="32" filterUnits="userSpaceOnUse"><feOffset dy="3" input="SourceAlpha"/><feGaussianBlur stdDeviation="3" result="b"/><feFlood flood-opacity="0.161"/><feComposite operator="in" in2="b"/><feComposite in="SourceGraphic"/></filter></defs><g transform="translate(-162 -127.672)"><path class="a" d="M7,0H25a6.923,6.923,0,0,1,7,7V25a6.923,6.923,0,0,1-7,7H7a6.923,6.923,0,0,1-7-7V7A6.923,6.923,0,0,1,7,0Z" transform="translate(162 127.672)"/><path class="b" d="M2,0H8a2,2,0,0,1,2,2V12a2,2,0,0,1-2,2H2a2,2,0,0,1-2-2V2A2,2,0,0,1,2,0Z" transform="translate(171 138.672)"/><path class="a" d="M1,0A1,1,0,0,1,2,1V13a1,1,0,0,1-2,0V1A1,1,0,0,1,1,0Z" transform="translate(177 136.672)"/><g class="d" transform="matrix(1, 0, 0, 1, 162, 127.67)"><path class="c" d="M2,0H8a2,2,0,0,1,2,2V12a2,2,0,0,1-2,2H2a2,2,0,0,1-2-2V2A2,2,0,0,1,2,0Z" transform="translate(13 7)"/></g></g></svg>