<svg xmlns="http://www.w3.org/2000/svg" xmlns:xlink="http://www.w3.org/1999/xlink" width="30.829" height="30.728" viewBox="0 0 30.829 30.728"><defs><style>.a,.b{fill:#2a46ff;}.a{opacity:0.41;}.c{filter:url(#a);}</style><filter id="a" x="0.101" y="0" width="30.728" height="30.728" filterUnits="userSpaceOnUse"><feOffset dy="3" input="SourceAlpha"/><feGaussianBlur stdDeviation="3" result="b"/><feFlood flood-opacity="0.161"/><feComposite operator="in" in2="b"/><feComposite in="SourceGraphic"/></filter></defs><g transform="translate(-166.899 -127.081)"><path class="a" d="M2,0A2,2,0,0,1,4,2V12a2,2,0,0,1-4,0V2A2,2,0,0,1,2,0Z" transform="matrix(0.755, -0.656, 0.656, 0.755, 166.899, 141.838)"/><g class="c" transform="matrix(1, 0, 0, 1, 166.9, 127.08)"><path class="b" d="M2,0A2,2,0,0,1,4,2V12a2,2,0,0,1-4,0V2A2,2,0,0,1,2,0Z" transform="translate(11.93 18.73) rotate(-135)"/></g></g></svg>