<svg xmlns="http://www.w3.org/2000/svg" width="199.134" height="41.73" viewBox="0 0 199.134 41.73"><defs><style>.a{fill:#0d131c;}</style></defs><g transform="translate(-1461.09 -877.135)"><path class="a" d="M9.952.32A17.089,17.089,0,0,1,4.944-.416,10.452,10.452,0,0,1,1.12-2.368L2.56-5.6A11.344,11.344,0,0,0,5.936-3.824a12.276,12.276,0,0,0,4.016.688,6.94,6.94,0,0,0,3.728-.8,2.424,2.424,0,0,0,1.232-2.112,2.045,2.045,0,0,0-.688-1.584,4.83,4.83,0,0,0-1.744-.976q-1.056-.352-2.88-.8a33.572,33.572,0,0,1-4.144-1.216,6.82,6.82,0,0,1-2.72-1.9,5.129,5.129,0,0,1-1.136-3.5,5.977,5.977,0,0,1,1.008-3.376,6.82,6.82,0,0,1,3.04-2.416,12.316,12.316,0,0,1,4.976-.9,16.072,16.072,0,0,1,4.032.512,11.145,11.145,0,0,1,3.424,1.472L16.768-17.5A12.943,12.943,0,0,0,13.7-18.816a11.491,11.491,0,0,0-3.1-.448,6.484,6.484,0,0,0-3.664.832,2.566,2.566,0,0,0-1.2,2.208,2,2,0,0,0,.688,1.568,4.971,4.971,0,0,0,1.744.96q1.056.352,2.88.8a30.306,30.306,0,0,1,4.1,1.2,7.015,7.015,0,0,1,2.736,1.9,5.018,5.018,0,0,1,1.136,3.456A5.9,5.9,0,0,1,18-2.976a6.857,6.857,0,0,1-3.056,2.4A12.433,12.433,0,0,1,9.952.32ZM45.536-3.488V0h-16.8V-22.4H45.088v3.488H32.9v5.824H43.712v3.424H32.9v6.176ZM55.776-22.4h4.16V-3.52H71.648V0H55.776ZM97.344-3.488V0h-16.8V-22.4H96.9v3.488H84.7v5.824H95.52v3.424H84.7v6.176ZM117.856.32a12.615,12.615,0,0,1-6.128-1.488A10.969,10.969,0,0,1,107.44-5.28a11.407,11.407,0,0,1-1.552-5.92,11.317,11.317,0,0,1,1.568-5.92,11.084,11.084,0,0,1,4.3-4.112,12.615,12.615,0,0,1,6.128-1.488,12.782,12.782,0,0,1,5.024.96,10.247,10.247,0,0,1,3.84,2.784l-2.688,2.528a7.839,7.839,0,0,0-5.984-2.624,8.39,8.39,0,0,0-4.128,1.008,7.262,7.262,0,0,0-2.848,2.8A8.044,8.044,0,0,0,110.08-11.2,8.044,8.044,0,0,0,111.1-7.136a7.262,7.262,0,0,0,2.848,2.8,8.39,8.39,0,0,0,4.128,1.008,7.8,7.8,0,0,0,5.984-2.656l2.688,2.56A10.22,10.22,0,0,1,122.9-.64,12.9,12.9,0,0,1,117.856.32Zm22.784-19.2h-7.424V-22.4h19.008v3.52H144.8V0h-4.16Z" transform="translate(1508 909)"/><g transform="translate(1289.09 743.463)"><path class="a" d="M2.318,0A2.318,2.318,0,0,1,4.637,2.318v27.82a2.318,2.318,0,0,1-4.637,0V2.318A2.318,2.318,0,0,1,2.318,0Z" transform="translate(172 142.945)"/><path class="a" d="M2.318,0A2.318,2.318,0,0,1,4.637,2.318v27.82a2.318,2.318,0,0,1-4.637,0V2.318A2.318,2.318,0,0,1,2.318,0Z" transform="translate(183.592 138.309)"/><path class="a" d="M2.318,0A2.318,2.318,0,0,1,4.637,2.318v27.82a2.318,2.318,0,0,1-4.637,0V2.318A2.318,2.318,0,0,1,2.318,0Z" transform="translate(195.184 133.672)"/></g></g></svg>